<svg width="50" height="50" viewBox="0 0 50 50" fill="none" xmlns="http://www.w3.org/2000/svg">
<circle cx="25" cy="25" r="25" fill="#FFF2F5"/>
<path d="M24.0032 38.8232C23.6644 38.7053 23.3667 38.5167 23.11 38.2574L20.695 36.0297C18.2217 33.743 15.9877 31.4743 13.9932 29.2235C11.9987 26.9727 11.0009 24.4913 11 21.7793C11 19.5634 11.735 17.7129 13.205 16.2277C14.675 14.7426 16.5067 14 18.7 14C19.9367 14 21.1033 14.265 22.2 14.7949C23.2967 15.3248 24.23 16.05 25 16.9703C25.77 16.0509 26.7033 15.3263 27.8 14.7963C28.8967 14.2664 30.0633 14.0009 31.3 14C33.4933 14 35.325 14.7426 36.795 16.2277C38.265 17.7129 39 19.5634 39 21.7793C39 24.4903 38.0083 26.9774 36.025 29.2405C34.0417 31.5035 31.79 33.7784 29.27 36.0651L26.89 38.2574C26.6333 38.5167 26.3361 38.7053 25.9982 38.8232C25.6603 38.9411 25.3276 39 25 39C24.6724 39 24.3401 38.9411 24.0032 38.8232ZM23.67 19.7992C22.9933 18.8326 22.27 18.0962 21.5 17.5898C20.73 17.0835 19.7967 16.8298 18.7 16.8289C17.3 16.8289 16.1333 17.3003 15.2 18.2433C14.2667 19.1862 13.8 20.3649 13.8 21.7793C13.8 23.0052 14.2317 24.3079 15.095 25.6874C15.9583 27.067 16.9911 28.4045 18.1932 29.7001C19.3953 30.9958 20.632 32.2098 21.9032 33.3423C23.1744 34.4748 24.2067 35.4059 25 36.1358C25.7933 35.405 26.8261 34.4738 28.0982 33.3423C29.3703 32.2108 30.607 30.9967 31.8082 29.7001C33.0094 28.4036 34.0417 27.066 34.905 25.6874C35.7683 24.3088 36.2 23.0061 36.2 21.7793C36.2 20.3649 35.7333 19.1862 34.8 18.2433C33.8667 17.3003 32.7 16.8289 31.3 16.8289C30.2033 16.8289 29.27 17.0825 28.5 17.5898C27.73 18.0971 27.0067 18.8336 26.33 19.7992C26.1667 20.0349 25.9683 20.2117 25.735 20.3296C25.5017 20.4474 25.2567 20.5064 25 20.5064C24.7433 20.5064 24.4983 20.4474 24.265 20.3296C24.0317 20.2117 23.8333 20.0349 23.67 19.7992Z" fill="#ED5050"/>
</svg>
